# File created by Blade
# Date/Time:  Tue Sep 23 19:18:47 2014
# Frame Rate: 120.000 fps
#------------------------------------------------------
:FULLY-SPECIFIED
:DEGREES
1752
root 1.324200 34.797264 -0.510421 128.413977 -2.635208 -42.672510
Spine -76.919267 1.692699 23.877637
Head -19.269116 28.718472 41.848455
LeftShoulder -23.435241 29.461383 38.895333
LeftArm 111.283689 -71.453463 -120.683007
LeftForeArm -0.133309 -0.000000 88.509543
LeftHand -61.280546 0.000000 7.034723
LeftHandThumb1 -26.253704 0.000000 33.147579
RightShoulder -39.089275 -40.486682 -5.189181
RightArm 24.205889 54.611378 66.279583
RightForeArm 80.429287 -0.000000 -2.297430
RightHand 14.086483 -0.000000 14.632674
RightHandThumb1 -24.326973 -0.000000 -32.862282
LeftUpLeg -120.183201 41.571008 -14.414549
LeftLeg -9.345836 -0.000000 0.000000
LeftFoot 2.633020 -8.346541 5.401341
LeftToeBase 1.780419 -0.000000 -0.000000
RightUpLeg 5.458714 0.257614 -33.832199
RightLeg 57.955121 -0.000000 -0.000000
RightFoot 33.535699 4.006369 -2.492113
RightToeBase 34.900733 -0.000000 -0.000000
1753
root 1.324962 34.803625 -0.546585 128.751435 -2.571456 -42.700836
Spine -77.140617 1.725816 23.912247
Head -19.358499 28.669942 41.904728
LeftShoulder -23.415790 29.344734 39.035068
LeftArm 111.111157 -71.816321 -120.145983
LeftForeArm -0.390950 -0.000000 88.268469
LeftHand -61.279727 0.000000 7.000738
LeftHandThumb1 -26.253704 0.000000 33.147579
RightShoulder -39.143915 -40.411558 -5.203241
RightArm 24.210277 54.171672 65.817549
RightForeArm 80.859198 0.000000 -3.043150
RightHand 13.954877 0.000000 14.899217
RightHandThumb1 -24.326973 -0.000000 -32.862282
LeftUpLeg -121.043475 41.423260 -15.051794
LeftLeg -9.156280 -0.000000 0.000000
LeftFoot 2.493931 -8.684560 4.795508
LeftToeBase 2.273871 -0.000000 -0.000000
RightUpLeg 5.357568 0.215848 -33.664871
RightLeg 57.806036 -0.000000 -0.000000
RightFoot 33.293791 4.036119 -2.486147
RightToeBase 34.806116 -0.000000 -0.000000
1754
root 1.326161 34.813843 -0.580351 129.063991 -2.518138 -42.696496
Spine -77.344887 1.709054 23.996484
Head -19.458193 28.690525 42.009110
LeftShoulder -23.443356 29.261173 39.143992
LeftArm 111.061263 -72.133436 -119.765456
LeftForeArm -0.637986 -0.000000 88.064906
LeftHand -61.318185 -0.000000 6.864882
LeftHandThumb1 -26.253704 0.000000 33.147579
RightShoulder -39.064668 -40.238093 -5.322396
RightArm 23.994000 53.814802 65.281850
RightForeArm 81.112037 -0.000000 -3.641325
RightHand 13.981437 -0.000000 15.026429
RightHandThumb1 -24.326973 -0.000000 -32.862282
LeftUpLeg -121.918990 41.198405 -15.741138
LeftLeg -8.947302 -0.000000 0.000000
LeftFoot 2.306990 -9.106072 3.812071
LeftToeBase 3.273474 -0.000000 -0.000000
RightUpLeg 5.260022 0.159008 -33.471372
RightLeg 57.722688 -0.000000 -0.000000
RightFoot 33.117687 4.183569 -2.521111
RightToeBase 34.703616 -0.000000 -0.000000
1755
root 1.317772 34.823758 -0.614639 129.314974 -2.456680 -42.801141
Spine -77.476341 1.728853 23.977824
Head -19.553715 28.687763 42.120758
LeftShoulder -23.431679 29.187356 39.265214
LeftArm 111.199418 -72.429112 -119.549052
LeftForeArm -0.859424 -0.000000 87.831731
LeftHand -61.377743 0.000000 6.786096
LeftHandThumb1 -26.253704 0.000000 33.147579
RightShoulder -39.126761 -40.150883 -5.276000
RightArm 23.922956 53.531451 64.893177
RightForeArm 81.360192 -0.000000 -4.204288
RightHand 14.011896 -0.000000 15.310577
RightHandThumb1 -24.326973 -0.000000 -32.862282
LeftUpLeg -122.713167 41.112904 -16.458789
LeftLeg -8.800142 -0.000000 0.000000
LeftFoot 2.313795 -9.557246 2.821078
LeftToeBase 3.472230 -0.000000 -0.000000
RightUpLeg 5.203307 0.075141 -33.308024
RightLeg 57.631718 -0.000000 -0.000000
RightFoot 32.886411 3.646325 -2.397247
RightToeBase 35.010991 -0.000000 -0.000000
1756
root 1.307381 34.834501 -0.647578 129.469121 -2.393915 -42.817020
Spine -77.548540 1.666554 24.055700
Head -19.623695 28.692013 42.219844
LeftShoulder -23.430362 29.072606 39.367908
LeftArm 111.160731 -72.743646 -119.214163
LeftForeArm -1.150248 -0.000000 87.621278
LeftHand -61.327193 -0.000000 6.851744
LeftHandThumb1 -26.253704 0.000000 33.147579
RightShoulder -39.067796 -40.057392 -5.336588
RightArm 23.705139 53.492477 64.625259
RightForeArm 81.392417 -0.000000 -4.448081
RightHand 14.068536 -0.000000 15.444941
RightHandThumb1 -24.326973 -0.000000 -32.862282
LeftUpLeg -123.409342 40.933734 -17.079763
LeftLeg -8.637822 -0.000000 0.000000
LeftFoot 2.176190 -10.038261 2.076914
LeftToeBase 4.099552 -0.000000 -0.000000
RightUpLeg 5.242765 0.074260 -33.066367
RightLeg 57.584455 -0.000000 -0.000000
RightFoot 32.842103 3.586464 -2.378840
RightToeBase 35.001117 -0.000000 -0.000000
1757
root 1.299090 34.846314 -0.678738 129.707846 -2.361802 -42.827871
Spine -77.708614 1.627036 24.100090
Head -19.708080 28.690244 42.277772
LeftShoulder -23.414019 28.987750 39.482812
LeftArm 111.445417 -72.958002 -119.237004
LeftForeArm -1.355022 -0.000000 87.346007
LeftHand -61.349247 -0.000000 6.751987
LeftHandThumb1 -26.253704 0.000000 33.147579
RightShoulder -38.998088 -39.992849 -5.450977
RightArm 23.399112 53.566310 64.476414
RightForeArm 81.359715 0.000000 -4.439514
RightHand 14.061401 -0.000000 15.407787
RightHandThumb1 -24.326973 -0.000000 -32.862282
LeftUpLeg -124.164069 40.704524 -17.758008
LeftLeg -8.514659 -0.000000 0.000000
LeftFoot 2.083268 -10.486866 1.345974
LeftToeBase 4.609402 -0.000000 -0.000000
RightUpLeg 5.216455 -0.024494 -32.849269
RightLeg 57.603902 -0.000000 -0.000000
RightFoot 32.790627 3.551652 -2.359156
RightToeBase 34.949224 -0.000000 -0.000000
1758
root 1.290911 34.855550 -0.707718 129.902497 -2.378881 -42.895961
Spine -77.829569 1.588935 24.026756
Head -19.826542 28.662062 42.329984
LeftShoulder -23.370606 28.941843 39.571039
LeftArm 111.978192 -73.125536 -119.530110
LeftForeArm -1.526785 -0.000000 87.075170
LeftHand -61.269134 0.000000 6.791425
LeftHandThumb1 -26.253704 0.000000 33.147579
RightShoulder -39.026482 -40.008914 -5.451313
RightArm 23.196412 53.854108 64.530585
RightForeArm 81.121280 -0.000000 -4.284079
RightHand 14.068651 0.000000 15.382875
RightHandThumb1 -24.326973 -0.000000 -32.862282
LeftUpLeg -124.797448 40.521008 -18.439480
LeftLeg -8.456146 -0.000000 0.000000
LeftFoot 2.013912 -10.935448 0.640274
LeftToeBase 5.131252 -0.000000 -0.000000
RightUpLeg 5.198638 -0.102252 -32.718603
RightLeg 57.660174 -0.000000 -0.000000
RightFoot 32.879331 3.567939 -2.304248
RightToeBase 34.906986 -0.000000 -0.000000
1759
root 1.277619 34.863068 -0.736118 130.022631 -2.406995 -42.943561
Spine -77.901998 1.494963 24.012441
Head -19.880232 28.629572 42.400116
LeftShoulder -23.367354 28.931369 39.648117
LeftArm 112.700982 -73.197260 -120.049762
LeftForeArm -1.554945 0.000000 86.779504
LeftHand -61.268015 -0.000000 6.765289
LeftHandThumb1 -26.253704 0.000000 33.147579
RightShoulder -39.049133 -40.094423 -5.435837
RightArm 23.059257 54.113804 64.658695
RightForeArm 81.023738 -0.000000 -4.092632
RightHand 13.993871 -0.000000 15.366580
RightHandThumb1 -24.326973 -0.000000 -32.862282
LeftUpLeg -125.284688 40.365777 -19.003097
LeftLeg -8.408955 -0.000000 0.000000
LeftFoot 1.918566 -11.344722 -0.169204
LeftToeBase 6.035446 -0.000000 -0.000000
RightUpLeg 5.282099 -0.250417 -32.582247
RightLeg 57.693381 -0.000000 -0.000000
RightFoot 32.992866 3.436818 -2.255883
RightToeBase 34.819481 -0.000000 -0.000000
1760
root 1.263744 34.870128 -0.765690 130.099663 -2.400736 -43.054750
Spine -77.910514 1.439529 24.007149
Head -19.892395 28.602975 42.503342
LeftShoulder -23.352874 28.917250 39.777488
LeftArm 113.306505 -73.237389 -120.529745
LeftForeArm -1.358836 0.000000 86.479393
LeftHand -61.293136 0.000000 6.728551
LeftHandThumb1 -26.253704 0.000000 33.147579
RightShoulder -39.058268 -40.190227 -5.461830
RightArm 22.986826 54.434753 64.927156
RightForeArm 80.790740 -0.000000 -3.842758
RightHand 14.028735 -0.000000 15.260118
RightHandThumb1 -24.326973 -0.000000 -32.862282
LeftUpLeg -125.724366 40.327156 -19.540920
LeftLeg -8.379987 -0.000000 0.000000
LeftFoot 2.093472 -11.778986 -1.387072
LeftToeBase 6.235704 -0.000000 -0.000000
RightUpLeg 5.399981 -0.375307 -32.443270
RightLeg 57.719212 -0.000000 -0.000000
RightFoot 32.818848 3.021287 -2.029224
RightToeBase 35.262464 -0.000000 -0.000000
1761
root 1.248152 34.874313 -0.792653 130.172542 -2.400856 -43.106649
Spine -77.933631 1.363506 24.040630
Head -19.917232 28.535722 42.526518
LeftShoulder -23.349367 28.897224 39.825903
LeftArm 114.068672 -73.297649 -121.088973
LeftForeArm -1.087961 -0.000000 86.097708
LeftHand -61.333898 -0.000000 6.701047
LeftHandThumb1 -26.253704 0.000000 33.147579
RightShoulder -39.150072 -40.222744 -5.488397
RightArm 22.943331 54.676629 65.136021
RightForeArm 80.623138 0.000000 -3.650489
RightHand 14.008052 -0.000000 15.092450
RightHandThumb1 -24.326973 -0.000000 -32.862282
LeftUpLeg -126.077389 40.252480 -19.982254
LeftLeg -8.410833 -0.000000 0.000000
LeftFoot 2.116702 -12.133255 -2.251996
LeftToeBase 6.735005 -0.000000 -0.000000
RightUpLeg 5.502349 -0.539416 -32.293144
RightLeg 57.687120 -0.000000 -0.000000
RightFoot 33.089972 3.198640 -2.115723
RightToeBase 35.072225 -0.000000 -0.000000
